<?xml version="1.0" encoding="UTF-8" standalone="no"?>
<svg width="52px" height="52px" viewBox="0 0 52 52" version="1.1" xmlns="http://www.w3.org/2000/svg" xmlns:xlink="http://www.w3.org/1999/xlink">
    <!-- Generator: Sketch 45.1 (43504) - http://www.bohemiancoding.com/sketch -->
    <title>tabbar_life</title>
    <desc>Created with Sketch.</desc>
    <defs></defs>
    <g id="-" stroke="none" stroke-width="1" fill="none" fill-rule="evenodd">
        <g id="tabbar_life" fill="#999999">
            <path d="M26,44 C35.9411255,44 44,35.9411255 44,26 C44,16.0588745 35.9411255,8 26,8 C16.0588745,8 8,16.0588745 8,26 C8,35.9411255 16.0588745,44 26,44 Z M26,47 C14.4020203,47 5,37.5979797 5,26 C5,14.4020203 14.4020203,5 26,5 C37.5979797,5 47,14.4020203 47,26 C47,37.5979797 37.5979797,47 26,47 Z" id="Oval-4" fill-rule="nonzero"></path>
            <path d="M25.8452186,26 L36.5017548,26 C37.3292128,26 38,26.6657972 38,27.5 C38,28.3284271 37.3247509,29 36.5017548,29 L25.4982452,29 C25.3321354,29 25.1723394,28.9731688 25.0230163,28.9235302 C24.2385815,29.1058128 23.4443235,28.6308475 23.2356922,27.8522249 L20.3877744,17.2236509 C20.1736125,16.4243879 20.6431107,15.6041361 21.4488887,15.3882286 C22.2490879,15.1738159 23.0725448,15.6522405 23.2855519,16.4471938 L25.8452186,26 Z" id="Combined-Shape"></path>
        </g>
    </g>
</svg>