<?xml version="1.0" encoding="UTF-8" standalone="no"?>
<svg width="52px" height="52px" viewBox="0 0 52 52" version="1.1" xmlns="http://www.w3.org/2000/svg" xmlns:xlink="http://www.w3.org/1999/xlink">
    <!-- Generator: Sketch 45.1 (43504) - http://www.bohemiancoding.com/sketch -->
    <title>tabbar_115cloud</title>
    <desc>Created with Sketch.</desc>
    <defs></defs>
    <g id="-" stroke="none" stroke-width="1" fill="none" fill-rule="evenodd">
        <g id="tabbar_115cloud" fill-rule="nonzero">
            <path d="M15.6120227,42 L36,42 C41.5228475,42 46,37.5228475 46,32 C46,27.628062 43.1684162,23.8013856 39.0740188,22.4805193 L37.0519107,21.8281804 L36.9961202,19.7041855 C36.8398704,13.7556118 31.9652238,9 26,9 C20.0347762,9 15.1601296,13.7556118 15.0038798,19.7041855 L14.9480893,21.8281804 L12.9259812,22.4805193 C8.83158377,23.8013856 6,27.628062 6,32 C6,37.2359278 10.0404157,41.5761604 15.2275565,41.9707531 L15.6120227,42 Z M3,32 C3,26.2141044 6.77984174,21.3110382 12.0049141,19.6254123 C12.2034603,12.0665823 18.393267,6 26,6 C33.606733,6 39.7965397,12.0665823 39.9950859,19.6254123 C45.2201583,21.3110382 49,26.2141044 49,32 C49,39.1797017 43.1797017,45 36,45 L15,45 C8.28755229,44.4514855 3,38.8432298 3,32 Z" id="Combined-Shape" fill="#999999"></path>
            <path d="M35.7661505,45.0000496 C43.0846849,45.0000496 49.0257753,39.1396032 49.0257753,31.9000492 C49.0257753,24.6604952 43.0846849,18.8000488 35.7661505,18.8000488 C29.5976669,18.8000488 24.2806213,22.9961325 22.8676202,28.8522565 C22.6733086,29.6575729 23.1686259,30.4679315 23.9739423,30.6622432 C24.7792587,30.8565548 25.5896173,30.3612375 25.7839289,29.5559211 C26.8721996,25.0456284 30.9848189,21.8000488 35.7661505,21.8000488 C41.436939,21.8000488 46.0257753,26.3265966 46.0257753,31.9000492 C46.0257753,37.4735019 41.436939,42.0000496 35.7661505,42.0000496 C34.9377234,42.0000496 34.2661505,42.6716225 34.2661505,43.5000496 C34.2661505,44.3284767 34.9377234,45.0000496 35.7661505,45.0000496 Z" id="Oval-6-Copy-2" fill="#979797"></path>
        </g>
    </g>
</svg>