<?xml version="1.0" encoding="UTF-8" standalone="no"?>
<svg width="32px" height="32px" viewBox="0 0 32 32" version="1.1" xmlns="http://www.w3.org/2000/svg" xmlns:xlink="http://www.w3.org/1999/xlink">
    <!-- Generator: Sketch 48.1 (47250) - http://www.bohemiancoding.com/sketch -->
    <title>日历</title>
    <desc>Created with Sketch.</desc>
    <defs></defs>
    <g id="Symbols" stroke="none" stroke-width="1" fill="none" fill-rule="evenodd">
        <g id="日历" fill="#999999">
            <path d="M24,5 L27.0007252,5 C29.2094637,5 31,6.78429328 31,8.99005301 L31,25.009947 C31,27.2135924 29.2132053,29 27.0007252,29 L4.9992748,29 C2.79053632,29 1,27.2157067 1,25.009947 L1,8.99005301 C1,6.78640758 2.78679466,5 4.9992748,5 L8,5 L8,4 C8,3.44771525 8.44771525,3 9,3 C9.55228475,3 10,3.44771525 10,4 L10,5 L22,5 L22,4 C22,3.44771525 22.4477153,3 23,3 C23.5522847,3 24,3.44771525 24,4 L24,5 Z M24,7 L24,9 C24,9.55228475 23.5522847,10 23,10 C22.4477153,10 22,9.55228475 22,9 L22,7 L10,7 L10,9 C10,9.55228475 9.55228475,10 9,10 C8.44771525,10 8,9.55228475 8,9 L8,7 L4.99700466,7 C3.89497885,7 3,7.89130934 3,8.99079514 L3,25.0092049 C3,26.1017876 3.89408944,27 4.99700466,27 L27.0029953,27 C28.1050211,27 29,26.1086907 29,25.0092049 L29,8.99079514 C29,7.89821238 28.1059106,7 27.0029953,7 L24,7 Z M10,19 C9.17157288,19 8.5,18.3284271 8.5,17.5 C8.5,16.6715729 9.17157288,16 10,16 C10.8284271,16 11.5,16.6715729 11.5,17.5 C11.5,18.3284271 10.8284271,19 10,19 Z M16,19 C15.1715729,19 14.5,18.3284271 14.5,17.5 C14.5,16.6715729 15.1715729,16 16,16 C16.8284271,16 17.5,16.6715729 17.5,17.5 C17.5,18.3284271 16.8284271,19 16,19 Z M22,19 C21.1715729,19 20.5,18.3284271 20.5,17.5 C20.5,16.6715729 21.1715729,16 22,16 C22.8284271,16 23.5,16.6715729 23.5,17.5 C23.5,18.3284271 22.8284271,19 22,19 Z"></path>
        </g>
    </g>
</svg>