<?xml version="1.0" encoding="UTF-8" standalone="no"?>
<svg width="24px" height="24px" viewBox="0 0 24 24" version="1.1" xmlns="http://www.w3.org/2000/svg" xmlns:xlink="http://www.w3.org/1999/xlink">
    <!-- Generator: Sketch 48.1 (47250) - http://www.bohemiancoding.com/sketch -->
    <title>关注2px</title>
    <desc>Created with Sketch.</desc>
    <defs></defs>
    <g id="Symbols" stroke="none" stroke-width="1" fill="none" fill-rule="evenodd">
        <g id="关注2px">
            <g id="关注" transform="translate(0.000000, 1.000000)">
                <path d="M11,13 C11,13.7012708 11.1203084,14.3744421 11.3414114,15 L8.61894737,15 C6.33916935,15 2,17.23201 2,18.5936842 C2,20.1713851 2.54422996,20.3473684 10.5010526,20.3473684 C11.4809825,20.3473684 12.3604797,20.3447979 13.1497581,20.3380862 C13.3132664,21.0559458 13.6055098,21.7248324 14.0009189,22.3191768 C12.9689041,22.3397848 11.807473,22.3473684 10.5010526,22.3473684 C1.42629498,22.3473684 0,21.8861586 0,18.5936842 C0,15.7668013 5.37883757,13 8.61894737,13 L11,13 Z" id="Combined-Shape" fill="#999999" fill-rule="nonzero"></path>
                <path d="M11,2 C8.79128475,2 7,3.79128475 7,6 L7,9 C7,11.2087153 8.79128475,13 11,13 C13.2087153,13 15,11.2087153 15,9 L15,6 C15,3.79128475 13.2087153,2 11,2 Z M11,0 C14.3132847,0 17,2.68671525 17,6 L17,9 C17,12.3132847 14.3132847,15 11,15 C7.68671525,15 5,12.3132847 5,9 L5,6 C5,2.68671525 7.68671525,0 11,0 Z" id="Shape" fill="#999999" fill-rule="nonzero"></path>
                <path d="M18,17 L18,13.9953976 C18,13.4456547 18.4438648,13 19,13 C19.5522847,13 20,13.4556644 20,13.9953976 L20,17 L23.0046024,17 C23.5543453,17 24,17.4438648 24,18 C24,18.5522847 23.5443356,19 23.0046024,19 L20,19 L20,22.0046024 C20,22.5543453 19.5561352,23 19,23 C18.4477153,23 18,22.5443356 18,22.0046024 L18,19 L14.9953976,19 C14.4456547,19 14,18.5561352 14,18 C14,17.4477153 14.4556644,17 14.9953976,17 L18,17 Z" id="Combined-Shape" fill="#979797"></path>
            </g>
        </g>
    </g>
</svg>