<?xml version="1.0" encoding="UTF-8"?>
<svg width="40px" height="40px" viewBox="0 0 40 40" version="1.1" xmlns="http://www.w3.org/2000/svg" xmlns:xlink="http://www.w3.org/1999/xlink">
    <!-- Generator: Sketch 45.1 (43504) - http://www.bohemiancoding.com/sketch -->
    <title>list_select</title>
    <desc>Created with Sketch.</desc>
    <defs></defs>
    <g id="other" stroke="none" stroke-width="1" fill="none" fill-rule="evenodd">
        <g id="list_select" fill="#00A8FF">
            <path d="M17.7855339,24.8461941 L11.5606602,18.6213203 C10.9748737,18.0355339 10.0251263,18.0355339 9.43933983,18.6213203 L9.43933983,18.6213203 L9.43933983,18.6213203 C8.85355339,19.2071068 8.85355339,20.1568542 9.43933983,20.7426407 L16.5104076,27.8137085 C16.602415,27.9057159 16.7034013,27.983272 16.8105459,28.0463769 C17.3992902,28.5809578 18.3103068,28.5640619 18.8786797,27.995689 L32.3137085,14.5606602 C32.8994949,13.9748737 32.8994949,13.0251263 32.3137085,12.4393398 C31.7279221,11.8535534 30.7781746,11.8535534 30.1923882,12.4393398 L17.7855339,24.8461941 Z M20,0 L20,0 C31.045695,-2.02906125e-15 40,8.954305 40,20 L40,20 C40,31.045695 31.045695,40 20,40 C8.954305,40 1.3527075e-15,31.045695 0,20 L0,20 L0,20 C-1.3527075e-15,8.954305 8.954305,2.02906125e-15 20,0 L20,0 Z" id="Combined-Shape"></path>
        </g>
    </g>
</svg>