<?xml version="1.0" encoding="UTF-8" standalone="no"?>
<svg width="40px" height="40px" viewBox="0 0 40 40" version="1.1" xmlns="http://www.w3.org/2000/svg" xmlns:xlink="http://www.w3.org/1999/xlink">
    <!-- Generator: Sketch 45.1 (43504) - http://www.bohemiancoding.com/sketch -->
    <title>menu_write</title>
    <desc>Created with Sketch.</desc>
    <defs>
        <linearGradient x1="100%" y1="104.550612%" x2="40.5247738%" y2="104.550612%" id="linearGradient-1">
            <stop stop-color="#82C9F0" offset="0%"></stop>
            <stop stop-color="#76ADF3" offset="100%"></stop>
        </linearGradient>
        <linearGradient x1="57.5878792%" y1="0%" x2="57.5878799%" y2="104.550617%" id="linearGradient-2">
            <stop stop-color="#82C9F0" offset="0%"></stop>
            <stop stop-color="#76ADF3" offset="100%"></stop>
        </linearGradient>
    </defs>
    <g id="menu" stroke="none" stroke-width="1" fill="none" fill-rule="evenodd">
        <g id="menu_write" stroke-width="3">
            <rect id="Rectangle" stroke="url(#linearGradient-1)" x="2.5" y="37.5" width="34" height="1" rx="0.5"></rect>
            <path d="M2.49987114,36.4439284 L2.70986881,36.7939043 C2.98195899,37.2473618 3.46832663,37.5293596 4.00341867,37.5293596 L13.2077302,37.5293596 C13.6109711,37.5293596 14.0291968,37.3681974 14.4178437,37.0637972 L18.4607961,33.0157731 C18.5056532,32.9743415 18.5498036,32.9319092 18.5932283,32.8884845 L35.1374048,16.344308 C36.8970859,14.5846269 36.8980356,11.7310928 35.1396345,9.97269169 L30.0955615,4.92861878 C28.3340539,3.16711111 25.4858906,3.16890307 23.7239452,4.93084847 L7.17976877,21.4750249 C7.16254141,21.4923095 7.16254141,21.4923095 7.14271664,21.5123666 L7.11544809,21.5399935 C7.05873988,21.5973562 7.02753736,21.6284525 7.01290005,21.6418693 L2.95296071,25.7405214 C2.66224877,26.023773 2.49699956,26.4067109 2.49699956,26.818629 L2.49699956,36.0229405 C2.49699956,36.0453996 2.49748579,36.0677571 2.49987114,36.1552009 L2.49987114,36.4439284 Z" id="Combined-Shape" stroke="url(#linearGradient-2)"></path>
        </g>
    </g>
</svg>