<svg t="1524131004362" class="icon" viewBox="0 0 1024 1024" version="1.1" xmlns="http://www.w3.org/2000/svg" p-id="6016" height="200" width="200"><path d="M975.487807 504.149123a35.967985 35.967985 0 1 0-70.997304 11.775995c3.199999 19.029325 4.778665 39.807983 4.778665 60.287975a373.418511 373.418511 0 0 1-110.079954 265.813223 373.375844 373.375844 0 0 1-265.898556 109.994621 373.631844 373.631844 0 0 1-265.855889-110.079954 373.631844 373.631844 0 0 1-110.079955-265.898556c0-100.394625 39.08265-194.901252 110.079955-265.898556a373.631844 373.631844 0 0 1 265.855889-110.079954c4.223998 0 8.40533 0.085333 12.629328 0.213333L464.085353 282.026549a35.925318 35.925318 0 0 0 0 50.901312c14.079994 14.079994 36.906651 14.079994 50.901312 0l135.807944-135.807943a35.925318 35.925318 0 0 0 0-50.901312L514.986665 10.581329a35.925318 35.925318 0 0 0-50.901312 0 35.925318 35.925318 0 0 0 0 50.901312L530.687992 127.999947a446.677147 446.677147 0 0 0-314.069202 131.199945A446.677147 446.677147 0 0 0 85.333511 576.042427a446.506481 446.506481 0 0 0 131.199945 316.757201A446.677147 446.677147 0 0 0 533.290658 1023.999573c60.501308 0 119.082617-11.818662 174.378594-35.199985a444.757148 444.757148 0 0 0 142.421274-95.87196 447.359814 447.359814 0 0 0 95.99996-142.293274c23.381324-55.210644 35.157319-113.919953 35.157318-174.421261 0-24.661323-1.962666-48.981313-5.759997-72.106636z" fill="#ffffff" p-id="6017"></path></svg>