<?xml version="1.0" encoding="UTF-8" standalone="no"?>
<svg width="120px" height="142px" viewBox="0 0 120 142" version="1.1" xmlns="http://www.w3.org/2000/svg" xmlns:xlink="http://www.w3.org/1999/xlink">
    <!-- Generator: Sketch 48.1 (47250) - http://www.bohemiancoding.com/sketch -->
    <title>4K</title>
    <desc>Created with Sketch.</desc>
    <defs>
        <linearGradient x1="50%" y1="100%" x2="50%" y2="0%" id="linearGradient-1">
            <stop stop-color="#FCC11A" offset="0%"></stop>
            <stop stop-color="#FAA70B" offset="100%"></stop>
        </linearGradient>
        <linearGradient x1="50%" y1="100%" x2="50%" y2="0%" id="linearGradient-2">
            <stop stop-color="#98BCCD" offset="0%"></stop>
            <stop stop-color="#76A1B7" offset="100%"></stop>
        </linearGradient>
        <linearGradient x1="50%" y1="100%" x2="50%" y2="0%" id="linearGradient-3">
            <stop stop-color="#9E9EEE" offset="0%"></stop>
            <stop stop-color="#7D7CE5" offset="100%"></stop>
        </linearGradient>
        <linearGradient x1="0%" y1="79.409%" x2="100%" y2="20.591%" id="linearGradient-4">
            <stop stop-color="#FAD31D" offset="0%"></stop>
            <stop stop-color="#FAD115" offset="26.1%"></stop>
            <stop stop-color="#FBDC55" offset="50.3%"></stop>
            <stop stop-color="#F9CA14" offset="75.3%"></stop>
            <stop stop-color="#F8C20E" offset="100%"></stop>
        </linearGradient>
    </defs>
    <g id="文件图标集" stroke="none" stroke-width="1" fill="none" fill-rule="evenodd">
        <g id="4K">
            <g id="cab">
                <g>
                    <g id="code">
                        <g id="chm">
                            <g id="doc">
                                <g id="fla">
                                    <g id="avi">
                                        <g id="img">
                                            <path d="M120,31 L120,136 C120,139.456977 117.441627,142 113.94958,142 L6.05042017,142 C2.55837286,142 0,139.456977 0,136 L0,6 C0,2.54302262 2.55837286,0 6.05042017,0 L88.7394958,0 L120,31 Z" id="矩形_20" fill="url(#linearGradient-4)"></path>
                                            <path d="M6,0 L29,0 L29,9 L6,9 L6,0 Z M6,23 L29,23 L29,46 L6,46 L6,23 Z M6,60 L29,60 L29,83 L6,83 L6,60 Z M6,97 L29,97 L29,120 L6,120 L6,97 Z M6,133 L29,133 L29,142 L6,142 L6,133 Z M91,23 L114,23 L114,46 L91,46 L91,23 Z M91,60 L114,60 L114,83 L91,83 L91,60 Z M91,97 L114,97 L114,120 L91,120 L91,97 Z M91,133 L114,133 L114,142 L91,142 L91,133 Z" id="Rounded_Rectangle_1" fill="#FFFFFF" opacity="0.15"></path>
                                            <path d="M120,31 L95,31 C91.523486,31 89,28.476514 89,25 L89,0 L120,31 Z" id="矩形_21" fill="#F7E686"></path>
                                        </g>
                                    </g>
                                    <path d="M46.9146919,53 L50.7464455,53 L50.7464455,77.1350711 L56.5189573,77.1350711 L56.5189573,80.4691943 L50.7464455,80.4691943 L50.7464455,88.5308057 L46.8649289,88.5308057 L46.8649289,80.4691943 L29,80.4691943 L29,76.5876777 L46.9146919,53 Z M46.7156398,58.3246445 L32.4336493,77.1350711 L46.8649289,77.1350711 L46.8649289,58.3246445 L46.7156398,58.3246445 Z M84.436019,53 L65.3270142,71.4620853 L65.3270142,53 L61.2464455,53 L61.2464455,88.5308057 L65.3270142,88.5308057 L65.3270142,76.0900474 L70.8507109,70.8649289 L86.5260664,88.5308057 L92,88.5308057 L73.6872038,68.2274882 L89.7606635,53 L84.436019,53 Z" id="4K" fill="#743001"></path>
                                </g>
                            </g>
                        </g>
                    </g>
                </g>
            </g>
        </g>
    </g>
</svg>