<?xml version="1.0" encoding="UTF-8" standalone="no"?>
<svg width="16px" height="16px" viewBox="0 0 16 16" version="1.1" xmlns="http://www.w3.org/2000/svg" xmlns:xlink="http://www.w3.org/1999/xlink">
    <!-- Generator: Sketch 48.1 (47250) - http://www.bohemiancoding.com/sketch -->
    <title>男</title>
    <desc>Created with Sketch.</desc>
    <defs>
        <linearGradient x1="50%" y1="100%" x2="50%" y2="3.061617e-15%" id="linearGradient-1">
            <stop stop-color="#FFFFFF" offset="0%"></stop>
            <stop stop-color="#000000" offset="100%"></stop>
        </linearGradient>
        <path d="M11.4920605,4.26229859 C12.3791683,5.36777716 12.9098751,6.77151469 12.9098751,8.29920543 C12.9098751,11.864169 10.0199011,14.754143 6.45493756,14.754143 C2.88997398,14.754143 -2.48689958e-14,11.864169 -2.48689958e-14,8.29920543 C-2.48689958e-14,4.73424186 2.88997398,1.84426787 6.45493756,1.84426787 C7.99394496,1.84426787 9.40715593,2.38286639 10.5163624,3.2818553 L12.4139268,1.38429082 L9.9222619,1.38429082 C9.53515308,1.38429082 9.22133937,1.07731371 9.22133937,0.692690366 C9.22133937,0.310729983 9.53474405,0.00108991284 9.9222619,0.00108991284 L14.0233907,0.00108991284 C14.0363445,0.000366504188 14.0493982,-8.83863102e-15 14.0625425,-8.83943588e-15 C14.2240428,-8.84932492e-15 14.3726138,0.0560292833 14.4903168,0.149999803 C14.6519755,0.276222243 14.7556363,0.471632027 14.7556363,0.692690366 C14.7556363,0.707990718 14.7551334,0.723175026 14.754143,0.738228035 L14.754143,4.83337438 C14.754143,5.2204832 14.4471659,5.53429691 14.0625425,5.53429691 C13.6805822,5.53429691 13.3709421,5.22089223 13.3709421,4.83337438 L13.3709421,2.38341705 L11.4920605,4.26229859 Z" id="path-2"></path>
    </defs>
    <g id="Symbols" stroke="none" stroke-width="1" fill="none" fill-rule="evenodd">
        <g id="男">
            <g transform="translate(1.000000, 1.000000)">
                <g id="Combined-Shape">
                    <use fill="#35B9F7" xlink:href="#path-2"></use>
                    <use fill-opacity="0.16" fill="url(#linearGradient-1)" style="mix-blend-mode: overlay;" xlink:href="#path-2"></use>
                </g>
                <path d="M6.45493756,12.9098751 C9.00134011,12.9098751 11.0656072,10.845608 11.0656072,8.29920543 C11.0656072,5.75280288 9.00134011,3.68853575 6.45493756,3.68853575 C3.90853501,3.68853575 1.84426787,5.75280288 1.84426787,8.29920543 C1.84426787,10.845608 3.90853501,12.9098751 6.45493756,12.9098751 Z" id="Oval-10" fill-opacity="0.7" fill="#FFFFFF"></path>
            </g>
        </g>
    </g>
</svg>