<?xml version="1.0" encoding="UTF-8" standalone="no"?>
<svg width="16px" height="16px" viewBox="0 0 16 16" version="1.1" xmlns="http://www.w3.org/2000/svg" xmlns:xlink="http://www.w3.org/1999/xlink">
    <!-- Generator: Sketch 48.1 (47250) - http://www.bohemiancoding.com/sketch -->
    <title>女</title>
    <desc>Created with Sketch.</desc>
    <defs>
        <linearGradient x1="50%" y1="100%" x2="50%" y2="3.061617e-15%" id="linearGradient-1">
            <stop stop-color="#FFFFFF" offset="0%"></stop>
            <stop stop-color="#000000" offset="100%"></stop>
        </linearGradient>
        <path d="M11.8095658,10.9942524 L12.6571533,11.8418399 L13.8681383,10.6308548 C14.1356853,10.3633079 14.5700283,10.3638715 14.8424838,10.6363271 C15.113053,10.9068963 15.1096422,11.3489865 14.8479561,11.6106726 L13.636971,12.8216576 L14.8479561,14.0326427 C15.115503,14.3001896 15.1149394,14.7345326 14.8424838,15.0069882 C14.5719146,15.2775574 14.1298244,15.2741465 13.8681383,15.0124604 L12.6571533,13.8014754 L11.4461682,15.0124604 C11.1786213,15.2800074 10.7442783,15.2794437 10.4718227,15.0069882 C10.2012535,14.736419 10.2046644,14.2943288 10.4663505,14.0326427 L11.6773355,12.8216576 L10.7965998,11.9409219 C9.71538265,12.7539371 8.3709687,13.2357736 6.91401579,13.2357736 C3.34268456,13.2357736 0.44754858,10.3406377 0.44754858,6.76930643 C0.44754858,3.1979752 3.34268456,0.302839219 6.91401579,0.302839219 C10.485347,0.302839219 13.380483,3.1979752 13.380483,6.76930643 C13.380483,8.38429764 12.7884457,9.86101115 11.8095658,10.9942524 Z" id="path-2"></path>
    </defs>
    <g id="Symbols" stroke="none" stroke-width="1" fill="none" fill-rule="evenodd">
        <g id="女">
            <g>
                <g id="Combined-Shape">
                    <use fill="#F870A0" xlink:href="#path-2"></use>
                    <use fill-opacity="0.16" fill="url(#linearGradient-1)" style="mix-blend-mode: overlay;" xlink:href="#path-2"></use>
                </g>
                <path d="M6.91401579,11.3882116 C9.46496666,11.3882116 11.5329209,9.3202573 11.5329209,6.76930643 C11.5329209,4.21835555 9.46496666,2.15040128 6.91401579,2.15040128 C4.36306491,2.15040128 2.29511064,4.21835555 2.29511064,6.76930643 C2.29511064,9.3202573 4.36306491,11.3882116 6.91401579,11.3882116 Z" id="Oval-10" fill-opacity="0.7" fill="#FFFFFF"></path>
            </g>
        </g>
    </g>
</svg>