<?xml version="1.0" encoding="UTF-8" standalone="no"?>
<svg width="24px" height="24px" viewBox="0 0 24 24" version="1.1" xmlns="http://www.w3.org/2000/svg" xmlns:xlink="http://www.w3.org/1999/xlink">
    <!-- Generator: Sketch 48.1 (47250) - http://www.bohemiancoding.com/sketch -->
    <title>举报2px</title>
    <desc>Created with Sketch.</desc>
    <defs></defs>
    <g id="Symbols" stroke="none" stroke-width="1" fill="none" fill-rule="evenodd" fill-opacity="0">
        <g id="举报2px" fill="#F2F4F8" stroke="#999999" stroke-width="2">
            <g id="举报" transform="translate(2.000000, 2.000000)">
                <path d="M17.1831774,11.5104291 L17.14408,12.0199716 C16.9186397,17.0150489 13.8099292,20.9698771 10.0083504,20.9698771 C6.20677172,20.9698771 3.09806122,17.0150489 2.87262089,12.0199716 L2.88617389,11.6224204" id="Combined-Shape"></path>
                <path d="M17.8907161,8.96188306 C18.0995612,8.9877636 18.3083038,9.01455462 18.5169379,9.04225565 C18.5631246,9.20251763 18.5869365,9.36589901 18.5869365,9.53176233 C18.5869365,11.6382818 14.7461129,13.3444673 10.0083504,13.3444673 C5.27058798,13.3444673 1.42976435,11.6382818 1.42976435,9.53176233 C1.42976435,9.35998566 1.4553044,9.19087106 1.5047882,9.02512662 C1.76828675,8.98795378 2.03199838,8.95243312 2.2959075,8.91856608" id="Combined-Shape"></path>
                <path d="M17.9359172,9.05040834 C15.3057983,8.71950678 12.6590219,8.53811174 10.0083504,8.50709788 C7.48091131,8.52340989 4.95724056,8.70490022 2.45347562,9.05040834 L0,4.63720238 L10.0083504,0 L20.0167009,4.63720238 L17.9359172,9.05040834 Z" id="多边形_1-path"></path>
                <path d="M9.3652921,4.65543574 L9.3652921,5.19484405 C9.3652921,5.19484405 9.32658456,5.4770345 9.89471136,5.65184275 C9.89471136,5.65184275 10.3055107,5.46954272 10.3669434,5.20233583 L10.359951,4.65543574 L9.3652921,4.65543574 Z" id="多边形_1-path"></path>
            </g>
        </g>
    </g>
</svg>