<?xml version="1.0" encoding="UTF-8" standalone="no"?>
<svg width="24px" height="24px" viewBox="0 0 24 24" version="1.1" xmlns="http://www.w3.org/2000/svg" xmlns:xlink="http://www.w3.org/1999/xlink">
    <!-- Generator: Sketch 48.1 (47250) - http://www.bohemiancoding.com/sketch -->
    <title>取消关注2px</title>
    <desc>Created with Sketch.</desc>
    <defs></defs>
    <g id="Symbols" stroke="none" stroke-width="1" fill="none" fill-rule="evenodd">
        <g id="取消关注2px">
            <g id="取消关注" transform="translate(0.000000, 1.000000)">
                <path d="M11,13 C11,13.7012708 11.1203084,14.3744421 11.3414114,15 L8.61894737,15 C6.33916935,15 2,17.23201 2,18.5936842 C2,20.1713851 2.54422996,20.3473684 10.5010526,20.3473684 C11.0861761,20.3473684 11.6354915,20.3464519 12.1511734,20.3442846 C12.3163774,21.0660329 12.6117429,21.7381629 13.0112522,22.3346568 C12.2405756,22.3437331 11.4055653,22.3473684 10.5010526,22.3473684 C1.42629498,22.3473684 0,21.8861586 0,18.5936842 C0,15.7668013 5.37883757,13 8.61894737,13 L11,13 Z" id="Combined-Shape" fill="#999999" fill-rule="nonzero"></path>
                <path d="M11,2 C8.79128475,2 7,3.79128475 7,6 L7,9 C7,11.2087153 8.79128475,13 11,13 C13.2087153,13 15,11.2087153 15,9 L15,6 C15,3.79128475 13.2087153,2 11,2 Z M11,0 C14.3132847,0 17,2.68671525 17,6 L17,9 C17,12.3132847 14.3132847,15 11,15 C7.68671525,15 5,12.3132847 5,9 L5,6 C5,2.68671525 7.68671525,0 11,0 Z" id="Shape" fill="#999999" fill-rule="nonzero"></path>
                <rect id="Combined-Shape" fill="#979797" x="15" y="17" width="8" height="2" rx="1"></rect>
                <circle id="Oval-9" stroke="#979797" stroke-width="2" cx="19" cy="18" r="4"></circle>
            </g>
        </g>
    </g>
</svg>