<?xml version="1.0" encoding="UTF-8"?>
<svg width="46px" height="46px" viewBox="0 0 46 46" version="1.1" xmlns="http://www.w3.org/2000/svg" xmlns:xlink="http://www.w3.org/1999/xlink">
    <!-- Generator: Sketch 45.1 (43504) - http://www.bohemiancoding.com/sketch -->
    <title>nav_bar_tongzhi</title>
    <desc>Created with Sketch.</desc>
    <defs></defs>
    <g id="nav_bar" stroke="none" stroke-width="1" fill="none" fill-rule="evenodd">
        <g id="nav_bar_tongzhi">
            <path d="M33.3357445,19.5217945 L33.3344275,19.4589526 L33.3344275,15.8344275 C33.3344275,10.1268808 28.7075467,5.5 23,5.5 C17.2895988,5.5 12.6604039,10.1291948 12.6604039,15.8395961 L12.6597995,19.0368097 C12.5950718,21.3162805 12.1951085,23.5156506 11.460138,25.6295393 C10.779529,27.5870759 9.37115883,30.275105 7.22661497,33.7366339 C7.17761467,33.8157257 7.15165449,33.9069208 7.15165449,33.9999614 C7.15165449,34.2761038 7.37551212,34.4999614 7.6516545,34.4999614 L22.9732355,34.4999662 C22.9866148,34.4999944 22.9866148,34.4999944 23,34.5 C23.0133815,34.4999944 23.0133815,34.4999944 23.0305468,34.4999614 L38.1331638,34.4999614 C38.2294389,34.4999614 38.3236668,34.4721664 38.4045289,34.419915 C38.6364628,34.2700442 38.7029881,33.9605303 38.5531173,33.7285963 C36.8056246,31.0242478 35.4375973,28.2531525 34.4513785,25.4164703 C33.7930408,23.5228796 33.4210594,21.5564237 33.3357445,19.5217945 Z" id="Combined-Shape" stroke="#888888" stroke-width="3"></path>
            <path d="M17,38 C17,40.209139 19.6862915,42 23,42 L23,42 C26.3137085,42 29,40.209139 29,38" id="Oval-3" fill="#888888"></path>
        </g>
    </g>
</svg>