<?xml version="1.0" encoding="UTF-8" standalone="no"?>
<svg width="40px" height="40px" viewBox="0 0 40 40" version="1.1" xmlns="http://www.w3.org/2000/svg" xmlns:xlink="http://www.w3.org/1999/xlink">
    <!-- Generator: Sketch 45.1 (43504) - http://www.bohemiancoding.com/sketch -->
    <title>menu_huifu</title>
    <desc>Created with Sketch.</desc>
    <defs>
        <linearGradient x1="50%" y1="100%" x2="50%" y2="0%" id="linearGradient-1">
            <stop stop-color="#6FD4BA" offset="0%"></stop>
            <stop stop-color="#A1E3B9" offset="100%"></stop>
        </linearGradient>
    </defs>
    <g id="menu" stroke="none" stroke-width="1" fill="none" fill-rule="evenodd">
        <g id="menu_huifu">
            <path d="M5.61272298,37.5322967 C5.62694831,37.5322816 5.64153036,37.5321753 5.65646107,37.5319722 C6.08613361,37.5261284 6.68786779,37.4431121 7.41962694,37.2883426 C8.69021303,37.0196095 10.2467609,36.5610763 11.9087508,35.9955013 L12.4598486,35.8079628 L12.9931803,36.0412795 C15.1826328,36.9990993 17.5547803,37.5 20,37.5 C29.6649831,37.5 37.5,29.6649831 37.5,20 C37.5,10.3350169 29.6649831,2.5 20,2.5 C10.3350169,2.5 2.5,10.3350169 2.5,20 C2.5,23.9624719 3.81890871,27.7199142 6.20915456,30.7745986 L6.66356855,31.3553302 L6.4812589,32.0698262 C6.10863525,33.5301883 5.82690817,34.8841117 5.68980724,35.9872466 C5.61227364,36.6110938 5.58550863,37.1264822 5.61044479,37.5004326 C5.61116575,37.5112444 5.61192587,37.5218667 5.61272298,37.5322967 Z" id="椭圆_4" stroke="url(#linearGradient-1)" stroke-width="3"></path>
            <path d="M14,18 C15.1045695,18 16,18.8954305 16,20 C16,21.1045695 15.1045695,22 14,22 C12.8954305,22 12,21.1045695 12,20 C12,18.8954305 12.8954305,18 14,18 Z M26,18 C27.1045695,18 28,18.8954305 28,20 C28,21.1045695 27.1045695,22 26,22 C24.8954305,22 24,21.1045695 24,20 C24,18.8954305 24.8954305,18 26,18 Z" id="椭圆_14" fill="#93DFB9"></path>
        </g>
    </g>
</svg>