<?xml version="1.0" encoding="UTF-8" standalone="no"?>
<svg width="40px" height="40px" viewBox="0 0 40 40" version="1.1" xmlns="http://www.w3.org/2000/svg" xmlns:xlink="http://www.w3.org/1999/xlink">
    <!-- Generator: Sketch 45.1 (43504) - http://www.bohemiancoding.com/sketch -->
    <title>menu_community</title>
    <desc>Created with Sketch.</desc>
    <defs>
        <linearGradient x1="59.7502053%" y1="100%" x2="59.7502056%" y2="0%" id="linearGradient-1">
            <stop stop-color="#B3A1E8" offset="0%"></stop>
            <stop stop-color="#CBA6EA" offset="100%"></stop>
        </linearGradient>
    </defs>
    <g id="menu" stroke="none" stroke-width="1" fill="none" fill-rule="evenodd">
        <g id="menu_community" fill="url(#linearGradient-1)">
            <path d="M6,35.0236592 L6,34 L14.0717773,34 L14.0717773,37 L3,37 L3,9.00025246 C3,5.68640453 5.68099481,3 9.00370086,3 L17.9962991,3 C21.3120516,3 24,5.6816994 24,8.99306515 L24,18 L21,18 L21,8.99306515 C21,7.3403746 19.6570165,6 17.9962991,6 L9.00370086,6 C7.34040231,6 6,7.34070502 6,9.00025246 L6,32.6250394 C6,33.7250079 6,34.4792788 6,35.0236592 Z M9,12.5 C9,11.6715729 9.67646277,11 10.5063976,11 L16.4936024,11 C17.3255628,11 18,11.6657972 18,12.5 C18,13.3284271 17.3235372,14 16.4936024,14 L10.5063976,14 C9.6744372,14 9,13.3342028 9,12.5 Z M9,18.5 C9,17.6715729 9.66502976,17 10.498576,17 L13.501424,17 C14.3290647,17 15,17.6657972 15,18.5 C15,19.3284271 14.3349702,20 13.501424,20 L10.498576,20 C9.67093534,20 9,19.3342028 9,18.5 Z" id="Combined-Shape"></path>
            <path d="M35,23.6040519 L26.8509235,18.162181 C26.477129,17.9125648 25.5585811,17.910908 25.1917586,18.1550457 L17,23.6070478 L17,33.9734469 L35,33.9734469 L35,23.6040519 Z M38,36.9734469 L14,36.9734469 L14,22 L23.5295941,15.6576052 C24.9051089,14.7421351 27.1364582,14.7454367 28.5169636,15.6673242 L38,22 L38,36.9734469 Z" id="Combined-Shape" fill-rule="nonzero"></path>
            <path d="M25,34 L27,34 L27,29.0057983 C27,29.004074 26.3338885,29.0021412 25.0016655,29 C25.0000461,29 24.9994909,30.6666667 25,34 Z M22,29.0057983 C22,27.3457418 23.3390201,26 25.0016655,26 L26.9983345,26 C28.6561086,26 30,27.3488159 30,29.0057983 L30,37 L22,37 L22,29.0057983 Z" id="Rectangle-3" fill-rule="nonzero"></path>
        </g>
    </g>
</svg>