<?xml version="1.0" encoding="UTF-8" standalone="no"?>
<svg width="40px" height="40px" viewBox="0 0 40 40" version="1.1" xmlns="http://www.w3.org/2000/svg" xmlns:xlink="http://www.w3.org/1999/xlink">
    <!-- Generator: Sketch 45.1 (43504) - http://www.bohemiancoding.com/sketch -->
    <title>menu_star</title>
    <desc>Created with Sketch.</desc>
    <defs>
        <linearGradient x1="69.7191896%" y1="100%" x2="69.7191894%" y2="0%" id="linearGradient-1">
            <stop stop-color="#EFB950" offset="0%"></stop>
            <stop stop-color="#ECDA74" offset="100%"></stop>
        </linearGradient>
    </defs>
    <g id="menu" stroke="none" stroke-width="1" fill="none" fill-rule="evenodd">
        <g id="menu_star" fill-rule="nonzero" fill="url(#linearGradient-1)">
            <path d="M27.4219269,26.904213 C27.1681024,25.3950756 27.7209659,23.668516 28.802465,22.5934954 L34.5699052,16.8606039 L26.676763,15.6910121 C25.1461751,15.4642123 23.6607009,14.3769163 22.9871724,12.9852466 L19.5003463,5.78063618 L16.0135202,12.9852466 C15.3371121,14.3828661 13.8538577,15.4643101 12.3239296,15.6910121 L4.43078741,16.8606039 L10.1982276,22.5934954 C11.2738462,23.6626707 11.8312509,25.4030389 11.5787657,26.904213 L10.229905,34.9239903 L17.1933654,31.190783 C18.5716365,30.4518727 20.4304244,30.4526063 21.8073272,31.190783 L28.7707876,34.9239903 L27.4219269,26.904213 Z M20.3898423,33.834783 C19.8985872,33.5714144 19.1039998,33.5703988 18.6108504,33.834783 L9.78859137,38.5645181 C7.83815823,39.6101722 6.55459442,38.6885845 6.9215505,36.5068128 L8.62031889,26.4066266 C8.71197119,25.8616992 8.46561905,25.1012181 8.0832896,24.7211789 L0.915240683,17.5960687 C-0.654930737,16.0353031 -0.156504549,14.5075843 2.02061093,14.1849832 L11.8841963,12.7234147 C12.4334362,12.6420293 13.0697154,12.1813352 13.3131489,11.6783439 L17.7605822,2.48889087 C18.7214274,0.503556694 20.2794069,0.503849395 21.2401104,2.48889087 L25.6875438,11.6783439 C25.9274926,12.1741352 26.5651384,12.6417154 27.1164963,12.7234147 L36.9800817,14.1849832 C39.1607322,14.5081081 39.6573801,16.0335569 38.0854519,17.5960687 L30.917403,24.7211789 C30.5291576,25.1070986 30.2873904,25.8537856 30.3803737,26.4066266 L32.0791421,36.5068128 C32.4461523,38.6889062 31.1724837,39.6155062 29.2121012,38.5645181 L20.3898423,33.834783 Z" id="Star-2"></path>
        </g>
    </g>
</svg>