<?xml version="1.0" encoding="UTF-8" standalone="no"?>
<svg width="52px" height="52px" viewBox="0 0 52 52" version="1.1" xmlns="http://www.w3.org/2000/svg" xmlns:xlink="http://www.w3.org/1999/xlink">
    <!-- Generator: Sketch 45.1 (43504) - http://www.bohemiancoding.com/sketch -->
    <title>tabbar_jianghu_blue</title>
    <desc>Created with Sketch.</desc>
    <defs>
        <linearGradient x1="50%" y1="0%" x2="50%" y2="100%" id="linearGradient-1">
            <stop stop-color="#009AFE" offset="0%"></stop>
            <stop stop-color="#0EBAFF" offset="100%"></stop>
        </linearGradient>
    </defs>
    <g id="-" stroke="none" stroke-width="1" fill="none" fill-rule="evenodd">
        <g id="tabbar_jianghu_blue" fill="url(#linearGradient-1)">
            <path d="M8.62978723,38.8545456 C6.41702128,39.5000001 0.221276596,39.0696971 0,37.8863638 C0.885106383,36.2727275 4.53617021,34.5515154 5.53191489,30.4636366 C6.52765957,24.5469701 8.51914894,19.9212126 11.506383,16.4787884 C11.8382979,16.0484854 12.2808511,15.6181824 12.7234043,15.2954551 C14.8255319,13.2515157 17.3702128,11.8530309 20.3574468,10.8848491 C24.893617,9.27121278 24.5466754,4.00193158 25.7787234,4.00000075 C27.0107714,3.99806992 26.6876622,7.7223964 30.3288668,10.8692222 C33.5833333,13.6818188 36.8333333,12.6060612 41.0468085,17.8772732 C43.1489362,20.4590914 44.6978723,23.686364 45.9148936,27.5590912 L46.8,30.4636366 C48.0170213,34.4439396 50.5617021,36.3803032 52,37.8863638 C50.2297872,38.9621213 43.4670213,38.6393941 42.25,38.4242426 C42.25,42.7272728 41.0468085,46.169697 39.8297872,46.4924242 C38.612766,46.8151515 36.8333333,43.2651516 35.75,43.2651516 C34.6666667,43.2651516 32.5,46.4924242 26,46.4924242 C18.4166667,46.4924242 15.1574468,43.5878788 14.3829787,43.2651516 L12.7464539,46.6 C9.75,44.8787879 9.29361702,43.5878788 8.62978723,38.8545456 Z M16,25.9979131 L16,28.0020869 C16,29.1017394 16.8954305,30 18,30 C19.1122704,30 20,29.1055038 20,28.0020869 L20,25.9979131 C20,24.8982606 19.1045695,24 18,24 C16.8877296,24 16,24.8944962 16,25.9979131 Z M31,25.9979131 L31,28.0020869 C31,29.1017394 31.8954305,30 33,30 C34.1122704,30 35,29.1055038 35,28.0020869 L35,25.9979131 C35,24.8982606 34.1045695,24 33,24 C31.8877296,24 31,24.8944962 31,25.9979131 Z" id="Combined-Shape"></path>
        </g>
    </g>
</svg>