<?xml version="1.0" encoding="UTF-8"?>
<svg width="40px" height="40px" viewBox="0 0 40 40" version="1.1" xmlns="http://www.w3.org/2000/svg" xmlns:xlink="http://www.w3.org/1999/xlink">
    <!-- Generator: Sketch 45.1 (43504) - http://www.bohemiancoding.com/sketch -->
    <title>post_bar_location</title>
    <desc>Created with Sketch.</desc>
    <defs></defs>
    <g id="post_bar" stroke="none" stroke-width="1" fill="none" fill-rule="evenodd">
        <g id="post_bar_location" stroke="#888888" stroke-width="3">
            <path d="M19.9759642,36.7504363 L20.0004599,36.7807456 C20.7558712,37.7406875 21.735347,37.7250798 22.4704946,36.7064641 C22.5575957,36.5936761 22.7255853,36.3722343 22.9628606,36.0531486 C23.3609764,35.517766 23.80528,34.9066317 24.2841516,34.2308 C25.6529268,32.2990468 27.0217513,30.2397684 28.2972906,28.1426757 C29.4684967,26.2171153 30.5021792,24.3542246 31.3605496,22.5921322 C33.0680173,19.0869836 34,16.1419802 34,14.0185196 C34,6.78617395 28.2894735,1.5 20.75,1.5 C13.3011968,1.5 7.5,6.9326071 7.5,14.0185196 C7.5,16.1297383 8.5224866,19.0985005 10.394474,22.643217 C11.3147542,24.3858209 12.4181675,26.2275566 13.6655304,28.1314157 C15.046713,30.2395251 16.5290087,32.3114402 18.011303,34.2563377 C18.5299391,34.9368328 19.0111573,35.5523728 19.4423745,36.0917737 C19.6994367,36.4133276 19.8814877,36.6365944 19.9759642,36.7504363 Z" id="Combined-Shape"></path>
            <circle id="Oval-3" cx="20.5" cy="15.5" r="5"></circle>
        </g>
    </g>
</svg>