<?xml version="1.0" standalone="no"?><!DOCTYPE svg PUBLIC "-//W3C//DTD SVG 1.1//EN" "http://www.w3.org/Graphics/SVG/1.1/DTD/svg11.dtd"><svg t="1503995021037" class="icon" style="" viewBox="0 0 1024 1024" version="1.1" xmlns="http://www.w3.org/2000/svg" p-id="2370" xmlns:xlink="http://www.w3.org/1999/xlink" width="200" height="200"><defs><style type="text/css"></style></defs><path d="M884.504946 520.213056c-0.010233 206.580962-165.849282 370.969986-373.762589 371.316887-203.270567 0.338714-371.934964-170.190147-369.71439-375.765199 2.182712-202.101951 170.721243-369.903701 376.067075-367.805924 202.254424 2.066055 367.420137 167.704536 367.409904 372.254236z m-50.383504 0.880043c0.24457-180.275853-140.53678-322.092789-319.979662-322.332243-180.64015-0.2415-322.064137 140.141784-322.3128 319.939753-0.249687 180.669826 140.125411 322.114279 319.930543 322.366012 180.237991 0.252757 322.117348-140.575666 322.361919-319.973522z" p-id="2371" fill="#8a8a8a"></path><path d="M489.046219 586.720795c-0.021489-38.168298-0.130983-76.336596 0.018419-114.50387 0.091074-23.325241 7.857968-33.761941 24.320919-33.504068 15.836687 0.24764 23.432689 10.284227 23.47362 32.42448 0.144286 78.880535-0.011256 157.76107 0.115634 236.640582 0.024559 15.128559-2.860141 28.443819-19.721157 32.753984-15.389502 3.933589-27.873838-9.067516-28.070312-29.766954-0.38988-41.34464-0.11461-82.695421-0.137123-124.044154zM488.718761 334.932212c0.459464-5.685489 0.342808-11.491729 1.512446-17.026792 1.820462-8.615215 7.105838-14.846126 15.61156-17.766642 11.289114-3.875261 20.00052 0.436952 26.39823 9.594519 7.760754 11.107989 6.658653 44.190455-1.798973 52.79032-7.841595 7.973602-17.247826 10.495028-27.789926 5.296633-14.09502-6.950296-13.837146-19.935028-13.933337-32.888038z" p-id="2372" fill="#8a8a8a"></path></svg>