<svg xmlns="http://www.w3.org/2000/svg" xmlns:xlink="http://www.w3.org/1999/xlink" preserveAspectRatio="xMidYMid" width="40" height="48" viewBox="0 0 40 48">
  <defs>
    <style>
      .cls-1 {
        fill: url(#linear-gradient-1);
      }

      .cls-1, .cls-2, .cls-3 {
        fill-rule: evenodd;
      }

      .cls-2 {
        fill: #6c97fb;
      }

      .cls-3, .cls-5 {
        fill: #fff;
      }

      .cls-3 {
        opacity: 0.6;
      }

      .cls-4, .cls-5 {
        font-size: 11.9784px;
      }

      .cls-5 {
        font-family: "SF UI Text";
      }
    </style>

    <linearGradient id="linear-gradient-1" gradientUnits="userSpaceOnUse" x1="20" y1="48" x2="20">
      <stop offset="0" stop-color="#5989da"/>
      <stop offset="1" stop-color="#3766c8"/>
    </linearGradient>
  </defs>
  <g>
    <path d="M40.000,10.000 L40.000,45.000 C40.000,46.657 38.657,48.000 37.000,48.000 L3.000,48.000 C1.343,48.000 -0.000,46.657 -0.000,45.000 L-0.000,3.000 C-0.000,1.343 1.343,0.000 3.000,0.000 L30.000,0.000 L40.000,10.000 Z" class="cls-1"/>
    <path d="M40.000,10.000 L32.000,10.000 C30.895,10.000 30.000,9.105 30.000,8.000 L30.000,0.000 L40.000,10.000 Z" class="cls-2"/>
    <path d="M29.441,36.003 L19.576,36.003 C19.260,36.003 19.004,35.778 19.004,35.500 L19.004,34.496 C19.004,34.219 19.260,33.994 19.576,33.994 L29.441,33.994 C29.758,33.994 30.014,34.219 30.014,34.496 L30.014,35.500 C30.014,35.778 29.758,36.003 29.441,36.003 ZM29.460,29.004 L10.553,29.004 C10.247,29.004 10.000,28.780 10.000,28.502 L10.000,27.498 C10.000,27.221 10.247,26.996 10.553,26.996 L29.460,26.996 C29.766,26.996 30.013,27.221 30.013,27.498 L30.013,28.502 C30.013,28.780 29.766,29.004 29.460,29.004 ZM29.460,22.006 L10.553,22.006 C10.247,22.006 10.000,21.782 10.000,21.504 L10.000,20.500 C10.000,20.223 10.247,19.998 10.553,19.998 L29.460,19.998 C29.766,19.998 30.013,20.223 30.013,20.500 L30.013,21.504 C30.013,21.782 29.766,22.006 29.460,22.006 Z" class="cls-3"/>
    <text transform="translate(4 12) scale(0.91 0.92)" class="cls-4"><tspan class="cls-5">doc</tspan></text>
  </g>
</svg>
