<?xml version="1.0" encoding="UTF-8" standalone="no"?>
<svg width="40px" height="40px" viewBox="0 0 40 40" version="1.1" xmlns="http://www.w3.org/2000/svg" xmlns:xlink="http://www.w3.org/1999/xlink">
    <!-- Generator: Sketch 45.1 (43504) - http://www.bohemiancoding.com/sketch -->
    <title>menu_clean</title>
    <desc>Created with Sketch.</desc>
    <defs>
        <linearGradient x1="54.981029%" y1="90.0064444%" x2="54.9810305%" y2="0%" id="linearGradient-1">
            <stop stop-color="#F69957" offset="0%"></stop>
            <stop stop-color="#F8C268" offset="100%"></stop>
        </linearGradient>
        <linearGradient x1="54.981029%" y1="90.0064444%" x2="54.9810305%" y2="0%" id="linearGradient-2">
            <stop stop-color="#F69957" offset="0%"></stop>
            <stop stop-color="#F8A468" offset="100%"></stop>
        </linearGradient>
    </defs>
    <g id="menu" stroke="none" stroke-width="1" fill="none" fill-rule="evenodd">
        <g id="menu_clean">
            <path d="M6,20.0013964 L6,16.5498174 L6,17.0013964 L9,17.0013964 L9,20.0013964 L6,20.0013964 Z M30,17.0013964 L33,17.0013964 L33,16.5498174 L33,20.0013964 L30,20.0013964 L30,17.0013964 Z M9,20.0013964 L9,34.0035769 C9,35.6618834 10.3379568,37 11.9921751,37 L27.0078249,37 C28.6571194,37 30,35.6569083 30,34.0035769 L30,20.0013964 L9,20.0013964 Z M33,34.0035769 C33,37.3153099 30.3124266,40 27.0078249,40 L11.9921751,40 C8.68278818,40 6,37.3204236 6,34.0035769 L6,16.5498174 L6,17.0013964 L33,17.0013964 L33,16.5498174 L33,34.0035769 Z" id="Combined-Shape" fill="url(#linearGradient-1)" fill-rule="nonzero"></path>
            <path d="M18,13 L6.00691225,13 C4.89396415,13 4,13.893527 4,15 C4,16.1004844 4.90006049,17 6.00691225,17 L33.9930877,17 C35.1060359,17 36,16.106473 36,15 C36,13.8995156 35.0999395,13 33.9930877,13 L22,13 L22,5.49202633 C22,4.3931616 21.1054621,3.5 20,3.5 C18.897518,3.5 18,4.39539162 18,5.49202633 L18,13 Z M15,10 L15,5.49202633 C15,2.73500632 17.2441952,0.5 20,0.5 C22.7614237,0.5 25,2.73541279 25,5.49202633 L25,10 L33.9930877,10 C36.758329,10 39,12.2441952 39,15 C39,17.7614237 36.7647948,20 33.9930877,20 L6.00691225,20 C3.24167097,20 1,17.7558048 1,15 C1,12.2385763 3.23520515,10 6.00691225,10 L15,10 Z" id="Combined-Shape" fill="url(#linearGradient-2)" fill-rule="nonzero"></path>
            <path d="M14,30.497101 C14,29.670275 14.6657972,29 15.5,29 C16.3284271,29 17,29.671656 17,30.497101 L17,37.502899 C17,38.329725 16.3342028,39 15.5,39 C14.6715729,39 14,38.328344 14,37.502899 L14,30.497101 Z M22,30.497101 C22,29.670275 22.6657972,29 23.5,29 C24.3284271,29 25,29.671656 25,30.497101 L25,37.502899 C25,38.329725 24.3342028,39 23.5,39 C22.6715729,39 22,38.328344 22,37.502899 L22,30.497101 Z" id="Combined-Shape" fill="url(#linearGradient-1)"></path>
        </g>
    </g>
</svg>