<?xml version="1.0" encoding="UTF-8" standalone="no"?>
<svg width="120px" height="142px" viewBox="0 0 120 142" version="1.1" xmlns="http://www.w3.org/2000/svg" xmlns:xlink="http://www.w3.org/1999/xlink">
    <!-- Generator: Sketch 48.1 (47250) - http://www.bohemiancoding.com/sketch -->
    <title>document-2</title>
    <desc>Created with Sketch.</desc>
    <defs>
        <linearGradient x1="50%" y1="100%" x2="50%" y2="0%" id="linearGradient-1">
            <stop stop-color="#9E9EEE" offset="0%"></stop>
            <stop stop-color="#7D7CE5" offset="100%"></stop>
        </linearGradient>
        <linearGradient x1="50%" y1="100%" x2="50%" y2="0%" id="linearGradient-2">
            <stop stop-color="#C1C9CC" offset="0%"></stop>
            <stop stop-color="#A7B1B6" offset="100%"></stop>
        </linearGradient>
    </defs>
    <g id="文件图标集" stroke="none" stroke-width="1" fill="none" fill-rule="evenodd">
        <g id="document-2">
            <g>
                <g id="fla">
                    <g id="avi">
                        <g id="img">
                            <path d="M120,31 L120,136 C120,139.456977 117.441627,142 113.94958,142 L6.05042017,142 C2.55837286,142 0,139.456977 0,136 L0,6 C0,2.54302262 2.55837286,0 6.05042017,0 L88.7394958,0 L120,31 Z" id="矩形_20" fill="url(#linearGradient-2)"></path>
                            <path d="M120,31 L95,31 C91.523486,31 89,28.476514 89,25 L89,0 L120,31 Z" id="矩形_21" fill="#CEDAE1"></path>
                        </g>
                    </g>
                </g>
                <path d="M27.0002795,85 L93.0002795,85 C93.6559296,85.0096233 94.1296678,85.2257657 94.0002795,86 C94.8205167,85.9759513 95.0093187,86.4792543 95.0002795,87 L95.0002795,91 C95.0093187,91.5207457 94.8205167,92.0240487 94.0002795,92 C94.1296678,92.7742343 93.6559296,92.9903767 93.0002795,93 L27.0002795,93 C26.3472437,92.9907913 25.8729623,92.7748838 26.0002795,92 C25.1809747,92.0247017 24.9916226,91.5211659 25.0002795,91 L25.0002795,87 C24.9916226,86.4788341 25.1809747,85.9752983 26.0002795,86 C25.8729623,85.2251162 26.3472437,85.0092087 27.0002795,85 Z M27.0002795,107 L93.0002795,107 C93.6545157,107.007584 94.1275683,107.222509 94.0002795,108 C94.8185792,107.972269 95.0081643,108.476318 95.0002795,109 L95.0002795,113 C95.0077579,113.523559 94.8180393,114.027362 94.0002795,114 C94.1272012,114.776934 93.6543856,114.991993 93.0002795,115 L27.0002795,115 C26.3477955,114.992423 25.8735001,114.776718 26.0002795,114 C25.1811716,114.024365 24.9916289,113.518676 25.0002795,113 L25.0002795,109 C24.9921114,107.909424 25.8164238,107.022945 27.0002795,107 Z M27.0002795,62 L93.0002795,62 C93.6545157,62.0075835 94.1275683,62.2225094 94.0002795,63 C94.8185792,62.9722692 95.0081643,63.4763176 95.0002795,64 L95.0002795,68 C95.0077579,68.5235587 94.8180393,69.027362 94.0002795,69 C94.1272012,69.7769344 93.6543856,69.991993 93.0002795,70 L27.0002795,70 C26.3477955,69.9924228 25.8735001,69.7767184 26.0002795,69 C25.1811716,69.0243649 24.9916289,68.5186764 25.0002795,68 L25.0002795,64 C24.9878883,62.9063132 25.8134232,62.0149366 27.0002795,62 Z" id="圆角矩形_2-5" fill="#FFFFFF" opacity="0.6"></path>
            </g>
        </g>
    </g>
</svg>