<?xml version="1.0" encoding="UTF-8"?>
<svg width="40px" height="40px" viewBox="0 0 40 40" version="1.1" xmlns="http://www.w3.org/2000/svg" xmlns:xlink="http://www.w3.org/1999/xlink">
    <!-- Generator: Sketch 45.1 (43504) - http://www.bohemiancoding.com/sketch -->
    <title>xxxhdpi/reply_bar__more</title>
    <desc>Created with Sketch.</desc>
    <defs></defs>
    <g id="post_bar" stroke="none" stroke-width="1" fill="none" fill-rule="evenodd">
        <g id="reply_bar__more" fill="#888888">
            <path d="M7,23 C5.34314575,23 4,21.6568542 4,20 C4,18.3431458 5.34314575,17 7,17 C8.65685425,17 10,18.3431458 10,20 C10,21.6568542 8.65685425,23 7,23 Z M20,23 C18.3431458,23 17,21.6568542 17,20 C17,18.3431458 18.3431458,17 20,17 C21.6568542,17 23,18.3431458 23,20 C23,21.6568542 21.6568542,23 20,23 Z M33,23 C31.3431458,23 30,21.6568542 30,20 C30,18.3431458 31.3431458,17 33,17 C34.6568542,17 36,18.3431458 36,20 C36,21.6568542 34.6568542,23 33,23 Z" id="postbar_message_more" transform="translate(20.000000, 20.000000) rotate(-270.000000) translate(-20.000000, -20.000000) "></path>
        </g>
    </g>
</svg>