<?xml version="1.0" encoding="UTF-8"?>
<svg width="40px" height="40px" viewBox="0 0 40 40" version="1.1" xmlns="http://www.w3.org/2000/svg" xmlns:xlink="http://www.w3.org/1999/xlink">
    <!-- Generator: Sketch 45.1 (43504) - http://www.bohemiancoding.com/sketch -->
    <title>tool_bar_delete@3x</title>
    <desc>Created with Sketch.</desc>
    <defs></defs>
    <g id="tool_bar" stroke="none" stroke-width="1" fill="none" fill-rule="evenodd">
        <g id="tool_bar_delete" fill="#888888">
            <path d="M5.00683848,10 L8,10 L8,32.9925801 C8,34.6544607 9.33900538,36 10.9907522,36 L30.0092478,36 C31.6558914,36 33,34.6535323 33,32.9925801 L33,10 L35.9931372,10 C35.9976951,10.0959515 36,10.1924851 36,10.2895485 L36,32.992173 C36,36.3102043 33.3166691,39 30.0045193,39 L10.9954807,39 C7.68426814,39 5,36.3046043 5,32.992173 L5,10.2895485 C5,10.1924774 5.00229664,10.0959441 5.00683848,10 Z M2,6.5 C2,5.67157288 2.67378907,5 3.49626982,5 L37.5037302,5 C38.3300972,5 39,5.66579723 39,6.5 C39,7.32842712 38.3262109,8 37.5037302,8 L3.49626982,8 C2.66990282,8 2,7.33420277 2,6.5 Z M16,2.5 C16,1.67157288 16.6764628,1 17.5063976,1 L23.4936024,1 C24.3255628,1 25,1.66579723 25,2.5 C25,3.32842712 24.3235372,4 23.4936024,4 L17.5063976,4 C16.6744372,4 16,3.33420277 16,2.5 Z M14,14.5037099 C14,13.6732339 14.6657972,13 15.5,13 C16.3284271,13 17,13.661977 17,14.5037099 L17,29.4962901 C17,30.3267661 16.3342028,31 15.5,31 C14.6715729,31 14,30.338023 14,29.4962901 L14,14.5037099 Z M24,14.5037099 C24,13.6732339 24.6657972,13 25.5,13 C26.3284271,13 27,13.661977 27,14.5037099 L27,29.4962901 C27,30.3267661 26.3342028,31 25.5,31 C24.6715729,31 24,30.338023 24,29.4962901 L24,14.5037099 Z" id="Combined-Shape"></path>
        </g>
    </g>
</svg>