<?xml version="1.0" encoding="UTF-8"?>
<svg width="24px" height="24px" viewBox="0 0 24 24" version="1.1" xmlns="http://www.w3.org/2000/svg" xmlns:xlink="http://www.w3.org/1999/xlink">
    <!-- Generator: Sketch 45.1 (43504) - http://www.bohemiancoding.com/sketch -->
    <title>设置标签</title>
    <desc>Created with Sketch.</desc>
    <defs></defs>
    <g id="Symbols" stroke="none" stroke-width="1" fill="none" fill-rule="evenodd">
        <g id="设置标签" fill="#999999">
            <g id="menu_add_tag" transform="translate(2.000000, 2.000000)">
                <path d="M18,20 L15,20 L15,19 L18,19 C19.105,19 20,18.105 20,17 L20,3 C20,1.895 19.105,1 18,1 L15,1 L15,0 L18,0 C19.657,0 21,1.343 21,3 L21,17 C21,18.657 19.657,20 18,20 Z M6,1 L3,1 C1.895,1 1,1.895 1,3 L1,17 C1,18.105 1.895,19 3,19 L6,19 L6,20 L3,20 C1.343,20 0,18.657 0,17 L0,3 C0,1.343 1.343,0 3,0 L6,0 L6,1 Z" id="Shape"></path>
            </g>
        </g>
    </g>
</svg>