<?xml version="1.0" encoding="UTF-8" standalone="no"?>
<svg width="32px" height="32px" viewBox="0 0 32 32" version="1.1" xmlns="http://www.w3.org/2000/svg" xmlns:xlink="http://www.w3.org/1999/xlink">
    <!-- Generator: Sketch 48.1 (47250) - http://www.bohemiancoding.com/sketch -->
    <title>隐藏模式</title>
    <desc>Created with Sketch.</desc>
    <defs></defs>
    <g id="Symbols" stroke="none" stroke-width="1" fill="none" fill-rule="evenodd">
        <g id="隐藏模式" fill="#999999">
            <path d="M28.0039426,15.0232921 C26.9513186,16.3314083 25.697122,17.4704624 24.2885149,18.3932923 L25.9320839,21.2400373 C26.2056796,21.7139191 26.0430746,22.3200086 25.5614474,22.5980762 C25.0831548,22.8742186 24.4699344,22.7075202 24.2000331,22.2400373 L22.5502735,19.38257 C20.7139525,20.2803338 18.6802861,20.8367743 16.5319079,20.969258 L16.5319079,24.009222 C16.5319079,24.5564136 16.0880431,25 15.5319079,25 C14.9796232,25 14.5319079,24.5490248 14.5319079,24.009222 L14.5319079,20.969258 C12.3835297,20.8367743 10.3498633,20.2803338 8.51354231,19.38257 L6.86378277,22.2400373 C6.59018699,22.7139191 5.98399557,22.8761438 5.50236838,22.5980762 C5.02407576,22.3219338 4.86183057,21.7075202 5.13173196,21.2400373 L6.77530096,18.3932923 C5.36669379,17.4704624 4.11249718,16.3314083 3.05987325,15.0232921 L0.635542151,17.0575475 C0.216369095,17.4092754 -0.408748615,17.3543871 -0.766225417,16.9283628 C-1.12122721,16.5052882 -1.063546,15.8724371 -0.650033069,15.5254586 L1.90187617,13.3841525 C0.730081436,11.4832293 -0.0551728765,9.31865111 -0.344304578,7 L1.67368563,7 C2.64414495,13.7845883 8.47896409,19 15.5319079,19 C22.5848517,19 28.4196709,13.7845883 29.3901302,7 L31.4081204,7 C31.1189887,9.31865111 30.3337344,11.4832293 29.1619397,13.3841525 L31.7138489,15.5254586 C32.1273618,15.8724371 32.185043,16.5052882 31.8300412,16.9283628 C31.4725644,17.3543871 30.8474467,17.4092754 30.4282737,17.0575475 L28.0039426,15.0232921 Z"></path>
        </g>
    </g>
</svg>