<?xml version="1.0" encoding="UTF-8" standalone="no"?>
<svg width="120px" height="142px" viewBox="0 0 120 142" version="1.1" xmlns="http://www.w3.org/2000/svg" xmlns:xlink="http://www.w3.org/1999/xlink">
    <!-- Generator: Sketch 48.1 (47250) - http://www.bohemiancoding.com/sketch -->
    <title>mp3</title>
    <desc>Created with Sketch.</desc>
    <defs>
        <linearGradient x1="50%" y1="100%" x2="50%" y2="0%" id="linearGradient-1">
            <stop stop-color="#9E9EEE" offset="0%"></stop>
            <stop stop-color="#7D7CE5" offset="100%"></stop>
        </linearGradient>
        <linearGradient x1="50%" y1="100%" x2="50%" y2="0%" id="linearGradient-2">
            <stop stop-color="#F45F5F" offset="0%"></stop>
            <stop stop-color="#EE3C3C" offset="100%"></stop>
        </linearGradient>
    </defs>
    <g id="文件图标集" stroke="none" stroke-width="1" fill="none" fill-rule="evenodd">
        <g id="mp3">
            <g id="fla">
                <g>
                    <g>
                        <g id="avi">
                            <g id="img">
                                <path d="M120,31 L120,136 C120,139.456977 117.441627,142 113.94958,142 L6.05042017,142 C2.55837286,142 0,139.456977 0,136 L0,6 C0,2.54302262 2.55837286,0 6.05042017,0 L88.7394958,0 L120,31 Z" id="矩形_20" fill="url(#linearGradient-2)"></path>
                                <path d="M120,31 L95,31 C91.523486,31 89,28.476514 89,25 L89,0 L120,31 Z" id="矩形_21" fill="#FF8578"></path>
                            </g>
                        </g>
                        <text id="mp3" font-family="Helvetica" font-size="24" font-weight="normal" fill="#FFFFFF">
                            <tspan x="12" y="30">mp3</tspan>
                        </text>
                        <path d="M26.6800963,114.834196 C29.8174457,118.816326 36.2983619,119.076586 41.1565603,115.417293 C43.0070555,114.039377 44.4295915,112.165673 45.2595761,110.012974 C45.756076,108.702849 46.0011789,107.310877 45.9820482,105.909958 L45.9820482,76.5431735 L80.9366146,67.9062185 L80.9366146,85.1787064 C80.9366146,90.8887961 77.5233605,92.1701885 75.9361973,92.4617373 C75.7939784,92.4773814 75.663137,92.5100918 75.5251847,92.5356912 L75.3488332,92.5556018 L75.3744326,92.5641349 C73.3986412,92.9156389 71.5335076,93.7278588 69.9302923,94.9349244 C65.072094,98.5956394 63.6726598,104.790696 66.8128536,108.774248 C69.9530473,112.7578 76.4311192,113.020905 81.2893175,109.361612 C83.5858707,107.682885 85.2057694,105.237651 85.8559671,102.468261 C86.0685179,101.911426 86.17838,101.320676 86.1802262,100.724657 L86.1802262,59.2692634 C86.1802262,57.0051382 83.2519386,53.3941998 80.9366146,54.0868059 L44.2270668,62.723761 C42.0325966,63.4732996 40.6043022,65.5907547 40.7313257,67.9062185 L40.7313257,92.083435 C40.7313257,97.80348 37.2995831,98.2301368 35.7223753,98.517419 C35.6427327,98.5287965 35.5630901,98.5543959 35.4791809,98.5657734 C35.2729635,98.5999059 35.1392777,98.6112835 35.1392777,98.6112835 L35.1847878,98.6311941 C33.2280138,98.9886517 31.3812216,99.7964103 29.7904241,100.990606 C24.933648,104.651321 23.5399025,110.846377 26.6744075,114.829929 L26.6800963,114.834196 Z" id="形状_1" fill="#FFFFFF" opacity="0.6"></path>
                    </g>
                </g>
            </g>
        </g>
    </g>
</svg>