<?xml version="1.0" encoding="UTF-8" standalone="no"?>
<svg width="120px" height="142px" viewBox="0 0 120 142" version="1.1" xmlns="http://www.w3.org/2000/svg" xmlns:xlink="http://www.w3.org/1999/xlink">
    <!-- Generator: Sketch 48.1 (47250) - http://www.bohemiancoding.com/sketch -->
    <title>原画</title>
    <desc>Created with Sketch.</desc>
    <defs>
        <linearGradient x1="50%" y1="100%" x2="50%" y2="0%" id="linearGradient-1">
            <stop stop-color="#FCC11A" offset="0%"></stop>
            <stop stop-color="#FAA70B" offset="100%"></stop>
        </linearGradient>
        <linearGradient x1="50%" y1="100%" x2="50%" y2="0%" id="linearGradient-2">
            <stop stop-color="#98BCCD" offset="0%"></stop>
            <stop stop-color="#76A1B7" offset="100%"></stop>
        </linearGradient>
        <linearGradient x1="50%" y1="100%" x2="50%" y2="0%" id="linearGradient-3">
            <stop stop-color="#9E9EEE" offset="0%"></stop>
            <stop stop-color="#7D7CE5" offset="100%"></stop>
        </linearGradient>
        <linearGradient x1="0%" y1="79.409%" x2="100%" y2="20.591%" id="linearGradient-4">
            <stop stop-color="#FEE587" offset="0%"></stop>
            <stop stop-color="#FBDC62" offset="25.3%"></stop>
            <stop stop-color="#F0C017" offset="56.4%"></stop>
            <stop stop-color="#F3C940" offset="100%"></stop>
        </linearGradient>
    </defs>
    <g id="文件图标集" stroke="none" stroke-width="1" fill="none" fill-rule="evenodd">
        <g id="原画">
            <g id="cab">
                <g>
                    <g id="code">
                        <g id="chm">
                            <g id="doc">
                                <g id="fla">
                                    <g id="avi">
                                        <g id="img">
                                            <path d="M120,31 L120,136 C120,139.456977 117.441627,142 113.94958,142 L6.05042017,142 C2.55837286,142 0,139.456977 0,136 L0,6 C0,2.54302262 2.55837286,0 6.05042017,0 L88.7394958,0 L120,31 Z" id="矩形_20" fill="url(#linearGradient-4)"></path>
                                            <path d="M6,0 L29,0 L29,9 L6,9 L6,0 Z M6,23 L29,23 L29,46 L6,46 L6,23 Z M6,60 L29,60 L29,83 L6,83 L6,60 Z M6,97 L29,97 L29,120 L6,120 L6,97 Z M6,133 L29,133 L29,142 L6,142 L6,133 Z M91,23 L114,23 L114,46 L91,46 L91,23 Z M91,60 L114,60 L114,83 L91,83 L91,60 Z M91,97 L114,97 L114,120 L91,120 L91,97 Z M91,133 L114,133 L114,142 L91,142 L91,133 Z" id="Rounded_Rectangle_1" fill="#FFFFFF" opacity="0.15"></path>
                                            <path d="M120,31 L95,31 C91.523486,31 89,28.476514 89,25 L89,0 L120,31 Z" id="矩形_21" fill="#F7E686"></path>
                                        </g>
                                    </g>
                                    <text id="原画" fill="#743001" font-family="PingFangSC-Regular, PingFang SC" font-size="36" font-weight="normal">
                                        <tspan x="24" y="86">原画</tspan>
                                    </text>
                                </g>
                            </g>
                        </g>
                    </g>
                </g>
            </g>
        </g>
    </g>
</svg>