<?xml version="1.0" standalone="no"?><!DOCTYPE svg PUBLIC "-//W3C//DTD SVG 1.1//EN" "http://www.w3.org/Graphics/SVG/1.1/DTD/svg11.dtd"><svg t="1503133878168" class="icon" style="" viewBox="0 0 1518 1024" version="1.1" xmlns="http://www.w3.org/2000/svg" p-id="2878" xmlns:xlink="http://www.w3.org/1999/xlink" width="296.484375" height="200"><defs><style type="text/css"></style></defs><path d="M1507.42754 369.331725c-14.116836 15.775564-38.609547 17.504877-54.738032 3.776254C1146.389456 99.558987 821.384597 16.093193 486.321492 124.792831c-105.982147 34.409788-208.540962 86.853834-304.853076 155.849871-55.585042 39.880062-105.417474 84.559848-110.323075 90.48892-7.340755 10.728795-19.551818 16.587282-32.045218 16.587282-7.481923 0-14.999138-2.082233-21.669343-6.493745a39.385973 39.385973 0 0 1-11.434637-53.749853c10.022954-15.175599 70.054799-67.725521 129.733724-110.534827 102.805859-73.725177 212.599552-129.804308 326.345958-166.755127 363.50853-117.946166 714.241323-29.010098 1042.598932 264.196588l0.282337 0.282337c15.634396 14.646217 16.693159 38.680131 2.470446 54.667448zM315.825403 557.015061c2.18811-2.752783 5.152645-5.999655 8.928899-10.199414a738.486989 738.486989 0 0 1 114.416957-100.582457c102.982319-73.089919 210.764363-110.711287 320.381596-111.875927l5.223229-0.035292c150.873686 0 297.300569 70.372428 435.398518 209.211512 14.928554 15.952025 14.469757 39.915354-0.635258 54.914492a38.99776 38.99776 0 0 1-54.632155 0.705842c-124.581079-125.216336-253.397208-187.75392-384.577908-186.377529-93.241703 0.988179-186.024608 33.77453-275.772394 97.441461a665.361778 665.361778 0 0 0-80.254213 67.090264 534.675168 534.675168 0 0 0-28.939514 30.774703l-6.811374 7.834844-1.870481-0.211753a39.315389 39.315389 0 0 1-29.22185 5.646735 39.244804 39.244804 0 0 1-22.269309-63.631639l0.635257-0.705842z m355.461934 167.460969l88.900775 89.006651 88.936068-89.006651 55.443874 55.514458-88.900776 89.006651 88.900776 89.006652-55.443874 55.514458-88.936068-89.041944-88.900775 89.041944-55.443874-55.514458 88.900775-89.006652-88.900775-89.006651 55.443874-55.514458z" p-id="2879" fill="#bfbfbf"></path></svg>