<?xml version="1.0" encoding="UTF-8" standalone="no"?>
<svg width="20px" height="20px" viewBox="0 0 20 20" version="1.1" xmlns="http://www.w3.org/2000/svg" xmlns:xlink="http://www.w3.org/1999/xlink">
    <!-- Generator: Sketch 45.1 (43504) - http://www.bohemiancoding.com/sketch -->
    <title>VIP_当前</title>
    <desc>Created with Sketch.</desc>
    <defs></defs>
    <g id="Symbols" stroke="none" stroke-width="1" fill="none" fill-rule="evenodd">
        <g id="VIP_当前" fill="#FFFFFF">
            <path d="M10.340652,11.2103823 L7.43206469,8.30179499 C7.03251543,7.90224574 6.40630407,7.90919935 6.01577978,8.29972364 C5.62253282,8.6929706 5.62618286,9.32434029 6.01785113,9.71600856 L9.54924233,13.2473998 C9.76987913,13.4680366 10.0596344,13.5647141 10.340652,13.5412941 C10.6216696,13.5647141 10.9114248,13.4680366 11.1320616,13.2473998 L14.6634528,9.71600856 C15.0551211,9.32434029 15.0587711,8.6929706 14.6655242,8.29972364 C14.2749999,7.90919935 13.6487885,7.90224574 13.2492393,8.30179499 L10.340652,11.2103823 Z M10.340652,19.1446629 L3.55271368e-15,8.72885058 L4.13649062,3 L16.5448134,3 L20.681304,8.72885058 L10.340652,19.1446629 Z" id="VIP服务"></path>
        </g>
    </g>
</svg>