<?xml version="1.0" encoding="UTF-8" standalone="no"?>
<svg width="20px" height="20px" viewBox="0 0 20 20" version="1.1" xmlns="http://www.w3.org/2000/svg" xmlns:xlink="http://www.w3.org/1999/xlink">
    <!-- Generator: Sketch 45.1 (43504) - http://www.bohemiancoding.com/sketch -->
    <title>个人资料_当前</title>
    <desc>Created with Sketch.</desc>
    <defs></defs>
    <g id="Symbols" stroke="none" stroke-width="1" fill="none" fill-rule="evenodd">
        <g id="个人资料_当前" fill="#FFFFFF">
            <path d="M6.70387758,10.6549981 C6.66752283,10.6695679 6.63238783,10.6852751 6.59866303,10.7021186 L4.90133697,11.5498345 C4.4014945,11.7994768 4,12.4477153 4,13 C4,13.5561352 4.43577021,14.078415 4.97332001,14.1751449 C4.97332001,14.1751449 5.75,14.3864746 7.5,14.3864746 C9.25,14.3864746 10.0119176,14.1774016 10.0119176,14.1774016 C10.5621186,14.0857712 11,13.5522847 11,13 C11,12.4438648 10.5964577,11.798454 10.098663,11.5498345 L8.40133697,10.7021186 C8.36901979,10.6859781 8.33542682,10.6708854 8.30072359,10.6568396 C9.00129078,10.3397983 9.48724021,9.5291839 9.5,8 C9.5,6.8954305 8.6045695,6 7.5,6 C6.3954305,6 5.5,6.8954305 5.5,8 C5.47880225,9.50203769 5.98657099,10.3304393 6.70387758,10.6549981 Z M1,3.99406028 C1,2.8927712 1.8926228,2 2.99508929,2 L17.0049107,2 C18.1067681,2 19,2.89451376 19,3.99406028 L19,16.0059397 C19,17.1072288 18.1073772,18 17.0049107,18 L2.99508929,18 C1.8932319,18 1,17.1054862 1,16.0059397 L1,3.99406028 Z M11,8 C11,8.55613518 11.4476291,9 11.9998075,9 L15.0001925,9 C15.5562834,9 16,8.55228475 16,8 C16,7.44386482 15.5523709,7 15.0001925,7 L11.9998075,7 C11.4437166,7 11,7.44771525 11,8 Z M12,12 C12,12.5561352 12.4519098,13 13.0093689,13 L14.9906311,13 C15.5566468,13 16,12.5522847 16,12 C16,11.4438648 15.5480902,11 14.9906311,11 L13.0093689,11 C12.4433532,11 12,11.4477153 12,12 Z" id="个人资料"></path>
        </g>
    </g>
</svg>