<?xml version="1.0" encoding="UTF-8" standalone="no"?>
<svg width="20px" height="20px" viewBox="0 0 20 20" version="1.1" xmlns="http://www.w3.org/2000/svg" xmlns:xlink="http://www.w3.org/1999/xlink">
    <!-- Generator: Sketch 45.1 (43504) - http://www.bohemiancoding.com/sketch -->
    <title>设置_当前</title>
    <desc>Created with Sketch.</desc>
    <defs></defs>
    <g id="Symbols" stroke="none" stroke-width="1" fill="none" fill-rule="evenodd">
        <g id="设置_当前" fill="#FFFFFF">
            <path d="M19.9268981,8.59711234 C19.8227532,8.14860658 19.4834035,7.7919532 19.040627,7.66564972 L18.7314827,7.59484014 C17.1637856,7.11900057 16.2392828,5.50304579 16.6236024,3.91043915 L16.6236024,3.91043915 L16.7203179,3.61856551 C16.8317826,3.17103601 16.6937661,2.698151 16.3590739,2.38083705 C16.0082578,2.11195267 15.6371766,1.87059591 15.2491481,1.65892474 C14.8731171,1.43031405 14.4811161,1.22907081 14.0761845,1.05675545 C13.6361105,0.922278532 13.1577264,1.03848117 12.8283815,1.359855 L12.6124987,1.59013006 C11.4253608,2.71543473 9.56434417,2.71214314 8.3811944,1.58264612 L8.17279547,1.35841578 C7.84370164,1.03658885 7.36505128,0.920321532 6.92499248,1.05531623 C6.51851517,1.22689881 6.12521761,1.42816557 5.74828692,1.65748552 C5.36114603,1.87006408 4.99128288,2.11269354 4.64210309,2.3831398 C4.30642894,2.69839893 4.16832524,3.17101557 4.28143477,3.61741413 L4.37066636,3.91302975 C4.55405198,4.6826115 4.43678711,5.49317015 4.04281224,6.1792242 C3.65071182,6.86505043 3.00887303,7.37293219 2.25127226,7.59685504 L1.9533539,7.66392266 C1.51057741,7.79022614 1.17122768,8.14687951 1.06708276,8.59538528 C0.977639081,9.47584058 0.977639081,10.3630932 1.06708276,11.2435485 C1.17024559,11.6925224 1.51002241,12.0495142 1.9533539,12.1747233 L2.24407617,12.2420787 L2.24407617,12.2420787 C3.00364575,12.4658639 3.64699094,12.975196 4.03907027,13.6631637 C4.43471527,14.3500072 4.55204803,15.1623743 4.36692439,15.9331001 L4.36692439,15.9331001 L4.28057124,16.2209439 C4.16910658,16.6684734 4.30712302,17.1413585 4.64181524,17.4586724 C5.35555599,17.9768481 6.12051399,18.4205257 6.92470464,18.782754 C7.36472842,18.9172402 7.84307166,18.8011578 8.17250763,18.4799423 L8.37716459,18.2591661 C9.56609371,17.1258653 11.4359314,17.1275133 12.622861,18.2629081 L12.622861,18.2629081 L12.8278058,18.4836843 C13.1570225,18.8052959 13.6355984,18.9214347 14.0756088,18.786496 C14.4820861,18.6149134 14.8753837,18.4136466 15.2523144,18.1843267 C15.6396977,17.973563 16.0096048,17.732156 16.3584982,17.4624144 C16.6941044,17.145659 16.8322778,16.6722362 16.7197422,16.2246859 L16.6302228,15.9253283 C16.2504406,14.3299204 17.1818382,12.7154139 18.753071,12.2455329 L18.753071,12.2455329 L19.0437933,12.1781774 C19.4864939,12.0519237 19.8258271,11.6953979 19.9300644,11.2470026 C19.9860756,10.8079913 20.0084965,10.3653451 19.997132,9.92292101 C20.0065811,9.47926383 19.9829122,9.03552 19.9263225,8.59538528 L19.9263225,8.59538528 L19.9268981,8.59711234 Z M10.4954073,12.5117884 C9.06466151,12.5117884 7.90481287,11.3519398 7.90481287,9.92119395 C7.90481287,8.49044814 9.06466151,7.3305995 10.4954073,7.3305995 C11.9261531,7.3305995 13.0860018,8.49044814 13.0860018,9.92119395 C13.0852077,11.3516107 11.9258241,12.5109944 10.4954073,12.5117884 L10.4954073,12.5117884 L10.4954073,12.5117884 Z" id="设置"></path>
        </g>
    </g>
</svg>