<?xml version="1.0" encoding="UTF-8" standalone="no"?>
<svg width="20px" height="20px" viewBox="0 0 20 20" version="1.1" xmlns="http://www.w3.org/2000/svg" xmlns:xlink="http://www.w3.org/1999/xlink">
    <!-- Generator: Sketch 45.1 (43504) - http://www.bohemiancoding.com/sketch -->
    <title>数据报告_当前</title>
    <desc>Created with Sketch.</desc>
    <defs></defs>
    <g id="Symbols" stroke="none" stroke-width="1" fill="none" fill-rule="evenodd">
        <g id="数据报告_当前" fill-rule="nonzero" fill="#FFFFFF">
            <g id="数据报告" transform="translate(1.000000, 1.000000)">
                <path d="M17.0324136,13.063886 C15.5477031,15.9926672 12.5082704,18 9,18 C4.02943725,18 0,13.9705627 0,9 C0,5.4648447 2.03821629,2.40574033 5.00360825,0.933727513 C5.64078024,0.617437004 6.32075887,0.374420701 7.03252231,0.215700431 L7.46782214,2.16775424 C6.92059418,2.28978378 6.39251885,2.47713092 5.89286866,2.72515597 C3.52721261,3.89946145 2,6.31230428 2,9 C2,12.8659932 5.13400675,16 9,16 C11.6666913,16 14.0637308,14.4967533 15.2485372,12.1595712 C15.4999189,11.6636887 15.6912653,11.1391347 15.8178962,10.5951465 L17.7658158,11.0485882 C17.6011352,11.7560322 17.353023,12.4314428 17.0324136,13.063886 Z" id="椭圆_9"></path>
                <path d="M18,9 C18,4.02943725 13.9705627,0 9,0 C8.97680664,5.05249023 9,9 9,9 C9,9 13.9157715,9.01867676 18,9 Z" id="椭圆_9"></path>
            </g>
        </g>
    </g>
</svg>