<svg t="1523606198849" class="icon" viewBox="0 0 1024 1024" version="1.1" xmlns="http://www.w3.org/2000/svg" p-id="41104" height="200" width="200"><path d="M928 1024H96c-54.4 0-96-41.6-96-96V96c0-54.4 41.6-96 96-96h416c19.2 0 32 12.8 32 32s-12.8 32-32 32H96c-19.2 0-32 12.8-32 32v832c0 19.2 12.8 32 32 32h832c19.2 0 32-12.8 32-32V512c0-19.2 12.8-32 32-32s32 12.8 32 32v416c0 54.4-41.6 96-96 96z" fill="#515151" p-id="41105"></path><path d="M544 512c-9.6 0-16-3.2-22.4-9.6-12.8-12.8-12.8-32 0-44.8l448-448c12.8-12.8 32-12.8 44.8 0s12.8 32 0 44.8l-448 448c-6.4 6.4-12.8 9.6-22.4 9.6z" fill="#515151" p-id="41106"></path></svg>