<svg t="1523357136358" class="icon" viewBox="0 0 1024 1024" version="1.1" xmlns="http://www.w3.org/2000/svg" p-id="2580" height="128" width="128"><path d="M979.232 532.96l-425.408 0 0 446.176c0 17.184-13.92 31.136-31.136 31.136s-31.136-13.952-31.136-31.136l0-446.176-446.176 0c-17.184 0-31.136-13.952-31.136-31.136s13.92-31.136 31.136-31.136l446.176 0 0-425.408c0-17.184 13.92-31.136 31.136-31.136s31.136 13.952 31.136 31.136l0 425.408 425.408 0c17.184 0 31.136 13.952 31.136 31.136s-13.92 31.136-31.136 31.136z" p-id="2581" fill="#ffffff"></path></svg>