<svg t="1522748900614" class="icon" viewBox="0 0 1024 1024" version="1.1" xmlns="http://www.w3.org/2000/svg" p-id="3343" height="200" width="200"><path d="M791.272727 477.090909h-46.545454c-13.963636 0-23.272727 9.309091-23.272728 23.272727s9.309091 23.272727 23.272728 23.272728h46.545454c13.963636 0 23.272727-9.309091 23.272728-23.272728s-9.309091-23.272727-23.272728-23.272727z m-256 0h-46.545454c-13.963636 0-23.272727 9.309091-23.272728 23.272727s9.309091 23.272727 23.272728 23.272728h46.545454c13.963636 0 23.272727-9.309091 23.272728-23.272728s-9.309091-23.272727-23.272728-23.272727z m-139.636363-256h232.727272c13.963636 0 23.272727-9.309091 23.272728-23.272727s-9.309091-23.272727-23.272728-23.272727H395.636364c-13.963636 0-23.272727 9.309091-23.272728 23.272727s9.309091 23.272727 23.272728 23.272727z m139.636363 442.181818h-46.545454c-13.963636 0-23.272727 9.309091-23.272728 23.272728s9.309091 23.272727 23.272728 23.272727h46.545454c13.963636 0 23.272727-9.309091 23.272728-23.272727s-9.309091-23.272727-23.272728-23.272728z m186.181818-349.090909c13.963636 0 23.272727-9.309091 23.272728-23.272727v-186.181818c0-13.963636-9.309091-23.272727-23.272728-23.272728s-23.272727 9.309091-23.272727 23.272728v186.181818c0 13.963636 9.309091 23.272727 23.272727 23.272727z m-418.90909 0c13.963636 0 23.272727-9.309091 23.272727-23.272727v-186.181818c0-13.963636-9.309091-23.272727-23.272727-23.272728s-23.272727 9.309091-23.272728 23.272728v186.181818c0 13.963636 9.309091 23.272727 23.272728 23.272727z m628.363636-139.636363h-116.363636c-13.963636 0-23.272727 9.309091-23.272728 23.272727s9.309091 23.272727 23.272728 23.272727h116.363636c25.6 0 46.545455 20.945455 46.545454 46.545455v581.818181c0 25.6-20.945455 46.545455-46.545454 46.545455H93.090909c-25.6 0-46.545455-20.945455-46.545454-46.545455v-581.818181c0-25.6 20.945455-46.545455 46.545454-46.545455h116.363636c13.963636 0 23.272727-9.309091 23.272728-23.272727s-9.309091-23.272727-23.272728-23.272727H93.090909c-51.2 0-93.090909 41.890909-93.090909 93.090909v581.818181c0 51.2 41.890909 93.090909 93.090909 93.09091h837.818182c51.2 0 93.090909-41.890909 93.090909-93.09091v-581.818181c0-51.2-41.890909-93.090909-93.090909-93.090909z m-651.636364 488.727272h-46.545454c-13.963636 0-23.272727 9.309091-23.272728 23.272728s9.309091 23.272727 23.272728 23.272727h46.545454c13.963636 0 23.272727-9.309091 23.272728-23.272727s-9.309091-23.272727-23.272728-23.272728z m-69.818182-162.909091c0 13.963636 9.309091 23.272727 23.272728 23.272728h46.545454c13.963636 0 23.272727-9.309091 23.272728-23.272728s-9.309091-23.272727-23.272728-23.272727h-46.545454c-13.963636 0-23.272727 9.309091-23.272728 23.272727z m581.818182 162.909091h-46.545454c-13.963636 0-23.272727 9.309091-23.272728 23.272728s9.309091 23.272727 23.272728 23.272727h46.545454c13.963636 0 23.272727-9.309091 23.272728-23.272727s-9.309091-23.272727-23.272728-23.272728z" fill="#bfbfbf" p-id="3344"></path></svg>