<?xml version="1.0" standalone="no"?><!DOCTYPE svg PUBLIC "-//W3C//DTD SVG 1.1//EN" "http://www.w3.org/Graphics/SVG/1.1/DTD/svg11.dtd"><svg t="1513256899556" class="icon" style="" viewBox="0 0 1024 1024" version="1.1" xmlns="http://www.w3.org/2000/svg" p-id="2815" xmlns:xlink="http://www.w3.org/1999/xlink" width="200" height="200"><defs><style type="text/css"></style></defs><path d="M437.527273 633.607365a47.134638 47.134638 0 0 1-33.324189-80.458826L899.140345 58.18771a47.134638 47.134638 0 1 1 66.648378 66.648377L470.851461 619.796916a46.898964 46.898964 0 0 1-33.324188 13.810449z" p-id="2816" fill="#707070"></path><path d="M812.129804 1024H211.870196C95.046997 1024 0 928.953003 0 812.129804V211.870196C0 95.046997 95.046997 0 211.870196 0h300.129804a47.134638 47.134638 0 0 1 0 94.269275H211.870196A117.742325 117.742325 0 0 0 94.269275 211.870196v600.236041a117.742325 117.742325 0 0 0 117.600921 117.600921h600.259608a117.718757 117.718757 0 0 0 117.577354-117.600921V512a47.134638 47.134638 0 0 1 94.269275 0v300.106237c0 116.846766-95.023429 211.893763-211.846629 211.893763z" p-id="2817" fill="#707070"></path></svg>